PathFileType	4	(X/Y/Z)	C:/Users/opensim2020/Desktop/walking_exp_matlab/subject01_walking05_straight_02.trc	
DataRate	CameraRate	NumFrames	NumMarkers	Units	OrigDataRate	OrigDataStartFrame	OrigNumFrames	
100.00	100.00	8	43	mm	100.00	1655	205	
Frame#	Time	LFHD			RFHD			LBHD			RBHD			C7			T10			CLAV			STRN			RBAK			LSHO			LUPA			LELB			LFRM			LWRA			LWRB			LFIN			RSHO			RUPA			RELB			RFRM			RWRA			RWRB			RFIN			LASI			RASI			LPSI			RPSI			LTHI			LKNE			LTIB			LANK			LHEE			LTOE			RTHI			RKNE			RTIB			RANK			RHEE			RTOE			*39			*40			*41			*42			
		X1	Y1	Z1	X2	Y2	Z2	X3	Y3	Z3	X4	Y4	Z4	X5	Y5	Z5	X6	Y6	Z6	X7	Y7	Z7	X8	Y8	Z8	X9	Y9	Z9	X10	Y10	Z10	X11	Y11	Z11	X12	Y12	Z12	X13	Y13	Z13	X14	Y14	Z14	X15	Y15	Z15	X16	Y16	Z16	X17	Y17	Z17	X18	Y18	Z18	X19	Y19	Z19	X20	Y20	Z20	X21	Y21	Z21	X22	Y22	Z22	X23	Y23	Z23	X24	Y24	Z24	X25	Y25	Z25	X26	Y26	Z26	X27	Y27	Z27	X28	Y28	Z28	X29	Y29	Z29	X30	Y30	Z30	X31	Y31	Z31	X32	Y32	Z32	X33	Y33	Z33	X34	Y34	Z34	X35	Y35	Z35	X36	Y36	Z36	X37	Y37	Z37	X38	Y38	Z38	X39	Y39	Z39	X40	Y40	Z40	X41	Y41	Z41	X42	Y42	Z42	X43	Y43	Z43	

180	1.790	1472.07349	-685.80579	1660.22180	1357.14941	-694.48590	1660.87366	1471.64148	-565.64648	1625.80103	1350.19629	-570.96088	1625.67664	1435.53992	-507.30963	1427.10767	1427.05334	-481.63251	1130.58130	1433.51746	-652.60754	1358.98743	1442.07581	-698.31921	1207.97607	1361.07410	-457.66782	1227.22156	1594.90771	-589.74988	1391.32349	1683.74573	-562.35748	1211.30493	1693.19128	-556.08612	1058.43042	1727.93542	-612.17566	960.34149	1718.21228	-714.85199	864.33514	1742.26538	-660.76007	848.93866	1754.96643	-723.62433	792.33832	1281.77856	-585.62347	1384.46313	1188.25269	-517.16895	1184.81323	1188.44312	-509.32404	1060.42859	1156.93628	-529.04431	941.49847	1168.67566	-606.64075	821.78986	1134.58679	-559.57709	824.57074	1134.62305	-592.74243	744.77612	1541.90393	-656.69153	927.25281	1324.98083	-670.16724	931.60449	1478.87866	-473.72241	934.15027	1333.98181	-482.80774	940.94617	1614.18311	-650.51361	596.17883	1610.47681	-646.95947	463.04611	1614.77966	-499.93527	351.25012	1559.32483	-336.63516	209.16714	1497.65881	-298.23709	221.88643	1564.35034	-380.10690	66.61227	1283.81738	-646.25549	596.21771	1320.15002	-672.53412	441.32849	1322.03113	-626.03302	269.76550	1385.12122	-601.93933	70.28198	1436.05371	-551.82025	35.55961	1389.21423	-741.89569	31.55023	1379.35779	-685.56964	1695.55737	-3101.78735	1973.02344	1023.29663	-3140.74048	2012.45618	1021.91235			 
181	1.800	1471.39392	-695.45508	1660.48596	1356.39563	-703.96832	1661.21912	1471.05505	-575.28461	1626.04846	1349.62317	-580.41119	1625.98816	1434.76575	-516.87463	1427.47327	1426.08777	-490.75232	1131.07080	1432.89099	-661.98242	1359.15405	1441.28052	-707.41248	1208.09045	1360.08899	-466.87009	1227.82813	1594.24622	-599.14130	1391.55676	1682.18176	-570.85541	1211.02808	1690.72913	-563.39478	1058.49854	1725.62878	-616.56488	959.23346	1716.31860	-716.23663	859.98828	1740.08545	-661.58398	846.15497	1752.56323	-722.59851	787.35602	1281.16711	-595.27911	1384.85376	1186.75989	-528.27271	1185.27478	1186.67419	-520.77557	1060.66443	1155.06995	-542.44568	941.96002	1166.77112	-621.51917	823.50574	1132.59204	-574.59344	825.63947	1132.55432	-609.14868	746.32996	1540.85205	-666.04932	927.59033	1323.48950	-678.98737	931.88342	1478.65027	-483.06161	934.50592	1333.76270	-490.67810	940.81152	1614.48279	-666.24017	598.26129	1611.08521	-665.67401	465.21072	1614.78040	-519.66254	352.70905	1559.71216	-358.04379	208.04295	1497.68140	-318.83020	218.78511	1568.55579	-404.87830	67.15155	1283.33496	-652.26349	596.29205	1319.89417	-676.66437	440.87973	1321.85120	-629.04224	269.47150	1385.11108	-602.11829	70.38918	1436.11414	-551.86414	35.83884	1389.29968	-741.98370	31.43766	1378.63733	-695.21875	1695.94714	-3101.86475	1973.05469	1023.25397	-3140.58643	2012.50854	1021.99164			 
182	1.810	1470.80042	-705.04236	1660.64514	1355.83752	-713.49164	1661.42480	1470.52441	-584.89264	1626.27954	1349.02905	-590.00977	1626.28564	1434.03833	-526.33307	1427.87695	1425.25720	-499.76898	1131.51172	1432.23730	-671.38708	1359.40393	1440.51343	-716.63379	1208.19934	1359.13220	-476.04703	1228.43579	1593.61096	-608.38428	1391.79150	1680.70496	-579.31012	1210.82312	1688.28845	-570.65509	1058.60291	1723.30652	-620.94202	958.24945	1714.45947	-717.46790	855.92346	1737.85352	-662.27295	843.59052	1750.15625	-721.29712	782.60547	1280.60510	-604.53290	1385.15857	1185.36938	-539.29199	1185.54407	1185.02319	-532.04120	1060.90161	1153.26318	-555.77289	942.47070	1165.16785	-636.68457	825.14935	1130.78467	-589.89368	826.54791	1130.56213	-625.41302	747.96759	1539.92786	-676.19696	928.44092	1321.98499	-687.79840	932.19806	1478.52734	-492.33054	934.96313	1333.49744	-500.06082	940.95538	1614.66638	-681.78540	600.27826	1611.68701	-683.97034	467.34180	1614.73901	-539.07971	353.91629	1560.10107	-379.56650	206.13782	1497.82837	-339.76813	214.53354	1572.37231	-431.85565	68.33329	1282.85913	-658.13025	596.09137	1319.53613	-680.67352	440.12482	1321.63489	-631.38165	269.33963	1385.05786	-602.25134	70.40440	1435.77649	-551.75922	35.97238	1389.35730	-742.09332	31.40269	1378.12280	-704.80908	1696.24048	-3102.00195	1973.12268	1023.45526	-3140.79272	2012.52930	1021.99548			 
183	1.820	1470.27539	-714.67035	1660.67200	1355.37012	-723.06177	1661.64026	1470.04248	-594.47089	1626.47107	1348.56262	-599.50592	1626.60547	1433.26770	-535.63696	1428.18018	1424.56592	-508.69687	1131.87048	1431.58936	-680.65424	1359.59082	1439.65100	-725.85724	1208.30688	1358.24951	-485.02820	1229.01782	1593.00256	-617.53876	1391.97644	1679.41589	-587.81610	1210.64331	1685.89099	-577.79663	1058.82861	1720.96313	-625.31274	957.29584	1712.55139	-718.50500	851.92413	1735.58594	-662.86029	841.27020	1747.80750	-719.84314	778.25543	1279.89783	-613.84583	1385.57617	1184.09009	-550.02283	1185.85034	1183.03589	-543.87866	1061.02759	1151.44568	-569.16046	943.02258	1163.50439	-651.74066	826.97430	1128.98022	-605.26263	827.64166	1128.43799	-642.04858	749.84363	1538.62939	-685.62872	929.02667	1320.51111	-696.50244	932.45251	1478.45081	-501.65671	935.49091	1333.35449	-508.64569	941.15234	1614.74451	-696.81830	602.64691	1612.26746	-701.64844	469.47162	1614.66650	-558.12946	354.82825	1560.47485	-401.63901	203.40080	1498.13086	-360.94986	209.10684	1575.82910	-460.08478	68.54523	1282.45593	-664.06958	595.74561	1319.21143	-684.43884	439.50049	1321.26355	-633.56848	269.28952	1385.00757	-602.54425	70.58044	1436.13672	-552.10938	36.32148	1389.36462	-742.22974	31.29890	1377.63013	-714.44073	1696.36340	-3102.01440	1973.05908	1023.97058	-3140.59180	2012.54077	1022.05231			 
184	1.830	1469.83765	-724.33893	1660.65247	1354.89539	-732.69226	1661.68176	1469.62939	-604.07629	1626.63330	1348.11511	-609.10669	1626.89978	1432.68457	-544.92633	1428.44983	1423.92944	-517.58862	1132.21765	1430.92053	-689.83691	1359.67761	1438.87366	-734.97064	1208.45520	1357.34143	-494.06381	1229.45459	1592.43213	-626.68958	1392.19141	1678.27930	-596.26642	1210.45593	1683.42883	-584.96368	1058.94336	1718.70032	-629.48907	956.38397	1710.64563	-719.49646	848.17059	1733.23938	-663.30505	839.14459	1745.58264	-718.17987	774.25891	1279.31750	-623.00476	1386.10913	1182.90710	-560.60431	1186.16077	1181.42346	-555.10291	1061.16846	1149.76050	-582.39948	943.60571	1161.92346	-666.83624	828.88098	1127.12170	-620.44263	828.97070	1126.39624	-658.45428	751.74878	1537.33679	-695.02441	929.56165	1319.08594	-705.06067	932.58490	1478.38159	-510.90109	935.98059	1333.22229	-517.18787	941.37866	1614.88440	-711.50677	604.75079	1612.67969	-718.79883	471.63022	1614.57800	-576.92303	355.24109	1561.00195	-424.63043	199.63210	1498.71484	-383.01010	202.68398	1579.11548	-489.35638	68.70411	1282.08899	-669.95630	595.34296	1318.68726	-688.13208	439.14362	1320.85400	-635.27142	269.35703	1384.88074	-602.84454	70.82749	1436.09875	-551.98492	36.45546	1389.37195	-742.38263	31.29301	1377.25977	-724.06232	1696.42822	-3101.77539	1973.07031	1023.45813	-3140.60181	2012.55542	1022.10559			 
185	1.840	1469.46423	-734.00476	1660.55334	1354.52246	-742.27466	1661.73669	1469.22119	-613.63861	1626.76233	1347.75879	-618.61670	1627.19983	1432.06726	-554.11792	1428.66089	1423.37146	-526.43939	1132.45874	1430.33179	-698.94678	1359.82495	1438.14343	-743.92224	1208.52722	1356.55640	-503.07849	1229.84424	1591.85205	-635.81665	1392.30908	1677.25781	-604.66730	1210.33423	1681.21313	-591.87341	1059.16699	1716.42114	-633.53351	955.50696	1708.70361	-720.32623	844.54535	1730.93079	-663.70178	837.27228	1743.41113	-716.39911	770.55298	1278.71387	-632.17419	1386.18140	1181.79102	-570.94830	1186.43127	1179.91675	-566.11420	1061.27075	1148.13843	-595.59851	944.12067	1160.38623	-681.89716	830.92493	1125.41565	-635.61847	830.28906	1124.48535	-675.00140	753.85822	1536.01660	-704.22357	929.99518	1317.74561	-713.44769	932.61267	1478.31567	-520.07819	936.41644	1333.17188	-525.67188	941.44812	1615.04333	-725.78802	606.82220	1613.00476	-735.29822	473.91132	1614.22095	-595.81549	354.79294	1561.82300	-448.34415	195.07983	1499.54968	-405.93915	195.53613	1581.75488	-518.94427	67.78127	1281.70813	-675.84521	595.10510	1318.08813	-691.56543	438.63315	1320.35132	-636.55560	269.30667	1384.85461	-603.01123	71.00101	1436.16675	-552.10510	37.02565	1389.50269	-742.49390	31.16995	1376.94104	-733.81659	1696.40137	-3101.88330	1973.14551	1023.54309	-3140.63916	2012.49988	1022.04694			 
186	1.850	1469.10754	-743.65417	1660.37903	1354.17554	-751.89630	1661.69482	1468.91736	-623.19611	1626.91296	1347.41577	-628.16046	1627.44653	1431.52441	-563.24335	1428.80469	1422.82507	-535.28003	1132.65100	1429.74768	-708.04395	1359.85059	1437.38245	-752.87860	1208.59192	1355.80151	-512.07251	1230.12439	1591.34119	-644.91016	1392.46680	1676.35852	-612.95959	1210.22327	1679.02893	-598.73138	1059.31421	1714.16760	-637.41742	954.69635	1706.68494	-721.12238	841.17596	1728.51880	-664.17255	835.58246	1741.23926	-714.54401	767.18982	1278.26782	-641.10754	1386.37683	1180.71240	-580.98486	1186.69226	1178.52820	-576.95129	1061.32349	1146.55554	-608.55768	944.67755	1158.89758	-696.85614	833.05487	1123.62402	-650.62372	831.75903	1122.57825	-691.55487	756.14154	1534.72717	-713.47772	930.58801	1316.37610	-721.69897	932.60126	1478.26697	-529.04431	936.79602	1333.10852	-534.02008	941.51587	1615.21228	-739.85571	609.02258	1613.09766	-751.32581	476.36255	1613.86975	-614.94543	353.62207	1562.74866	-472.63318	189.61806	1500.53760	-429.65259	187.68578	1584.22876	-548.70624	66.06644	1281.36096	-681.60101	595.00336	1317.46570	-695.02460	438.15231	1319.92468	-638.07947	269.50803	1384.79114	-603.06195	71.11367	1436.22131	-552.06744	37.47963	1389.44849	-742.38611	30.84752	1376.62549	-743.51593	1696.39136	-3101.77637	1973.04163	1023.29248	-3140.64722	2012.54333	1021.98193			 
187	1.860	1468.80481	-753.28241	1660.16736	1353.86804	-761.46539	1661.62805	1468.57080	-632.79413	1627.02173	1347.07666	-637.73511	1627.69299	1430.92822	-572.40942	1428.92407	1422.29419	-544.06744	1132.86548	1429.14258	-717.07288	1359.91882	1436.67761	-761.81738	1208.63843	1355.04907	-521.08472	1230.36035	1590.88293	-654.04132	1392.60107	1675.52454	-621.22418	1210.08142	1676.79626	-605.87299	1059.43811	1712.03223	-641.28168	953.94519	1704.83984	-721.90320	838.03497	1726.20044	-664.62579	834.15845	1739.12781	-712.71515	764.15759	1277.57678	-650.35736	1386.72681	1179.69702	-590.76978	1186.91211	1177.17383	-587.58435	1061.32959	1145.05908	-621.29266	945.24872	1157.52808	-711.71338	835.32208	1122.14758	-665.81891	833.21045	1120.83105	-708.22656	758.73242	1533.43494	-722.64331	931.19537	1315.97217	-728.03418	932.07617	1478.14441	-538.04370	937.07050	1333.06091	-542.28131	941.46777	1615.41687	-753.25995	610.74426	1612.97302	-767.04694	478.80450	1613.94360	-634.47290	351.85593	1563.67993	-497.35187	183.24774	1501.45154	-454.18906	179.01688	1587.07483	-578.72260	64.48883	1280.96521	-687.15356	594.66101	1317.03320	-698.49121	437.70135	1319.63501	-639.83307	269.85187	1384.76721	-603.35205	71.56595	1436.24646	-552.14063	38.13830	1389.35327	-742.53741	30.76364	1376.34155	-753.23889	1696.30237	-3101.90234	1973.02112	1023.70422	-3140.66797	2012.49402	1022.00629			 
